<?xml version="1.0" encoding="UTF-8" standalone="no"?>
<!-- Created with Inkscape (http://www.inkscape.org/) -->

<svg
   version="1.1"
   id="svg1"
   width="1024"
   height="1024"
   viewBox="0 0 1024 1024"
   sodipodi:docname="icon.svg"
   xml:space="preserve"
   inkscape:version="1.3.2 (091e20ef0f, 2023-11-25, custom)"
   inkscape:export-filename="icon.png"
   inkscape:export-xdpi="96"
   inkscape:export-ydpi="96"
   xmlns:inkscape="http://www.inkscape.org/namespaces/inkscape"
   xmlns:sodipodi="http://sodipodi.sourceforge.net/DTD/sodipodi-0.dtd"
   xmlns="http://www.w3.org/2000/svg"
   xmlns:svg="http://www.w3.org/2000/svg"><defs
     id="defs1" /><sodipodi:namedview
     id="namedview1"
     pagecolor="#ffffff"
     bordercolor="#111111"
     borderopacity="1"
     inkscape:showpageshadow="0"
     inkscape:pageopacity="0"
     inkscape:pagecheckerboard="1"
     inkscape:deskcolor="#d1d1d1"
     inkscape:zoom="0.53247213"
     inkscape:cx="373.72848"
     inkscape:cy="881.73629"
     inkscape:window-width="1920"
     inkscape:window-height="1016"
     inkscape:window-x="0"
     inkscape:window-y="36"
     inkscape:window-maximized="1"
     inkscape:current-layer="layer1" /><g
     inkscape:groupmode="layer"
     id="layer1"
     inkscape:label="svg"><path
       style="fill:#000000"
       d="m 435.31831,874.10232 c -78.86962,-3.0693 -135.94092,-11.2927 -193.68516,-27.9081 -79.93645,-23.0011 -136.0641,-59.7093 -164.263355,-107.4304 -9.96605,-16.8654 -15.93838,-33.9683 -19.03407,-54.5079 -1.96339,-13.02674 -2.16815,-55.50066 -0.26741,-55.46806 3.32003,0.057 132.938815,12.83517 133.230515,13.13427 0.18467,0.18936 1.32371,14.96929 2.5312,32.84429 1.2075,17.875 2.64558,34.3 3.19576,36.5 1.33145,5.3242 7.39163,11.1029 12.48137,11.9017 5.03769,0.7907 156.74577,11.5983 162.80667,11.5983 6.15532,0 11.10919,-2.4456 14.0958,-6.9586 2.0722,-3.1313 3.08899,-8.2269 7.20219,-36.0937 l 4.78934,-32.4477 h 65.40163 65.40162 l 4.80523,32.4482 c 4.12356,27.8451 5.14747,32.9654 7.21772,36.0937 2.99223,4.5216 7.94232,6.9581 14.13628,6.9581 6.16653,0 157.77224,-10.7953 162.76584,-11.59 5.0914,-0.8102 11.1517,-6.5931 12.4814,-11.91 0.5501,-2.2 1.9882,-18.625 3.1957,-36.5 1.2075,-17.875 2.3363,-32.64473 2.5085,-32.82162 0.2531,-0.25996 130.8789,-13.10261 133.8677,-13.16138 0.4775,-0.009 0.637,12.18325 0.3563,27.233 -0.5669,30.3932 -1.63109,37.6799 -8.3012,56.8427 -8.1778,23.4942 -20.3055,41.8053 -41.0493,61.9786 -53.8718,52.3903 -149.8509,85.743 -277.37027,96.3861 -33.91274,2.8305 -78.9983,4.0266 -108.5,2.8785 z M 287.46456,696.22852 c -32.36955,-2.3849 -59.00292,-4.4854 -59.18524,-4.6678 -0.18233,-0.1823 -1.4345,-15.88405 -2.7826,-34.89276 -2.79359,-39.3905 -3.074,-40.48397 -11.50066,-44.84689 -1.6496,-0.85409 -149.113515,-15.98242 -156.427745,-16.04793 -0.4125,-0.004 -0.75,-55.1495 -0.75,-122.54624 V 350.68739 L 45.05168,334.95542 c -11.65,-15.57601 -24.00476,-33.41384 -37.87848,-54.689 l -7.1732,-11 2.06215,-3.5 c 5.56691,-9.44852 22.07854,-33.91816 30.76637,-45.59467 13.97645,-18.78445 47.236005,-58.05251 50.177195,-59.24196 1.86723,-0.75513 43.825995,22.8335 68.455515,38.48475 7.22861,4.59353 13.43915,8.35188 13.80122,8.35188 0.36206,0 4.34774,-3.26985 8.85707,-7.26633 7.60401,-6.73918 31.60127,-25.56624 43.19879,-33.8916 2.75,-1.97411 11.525,-7.53679 19.5,-12.36152 7.975,-4.82472 15.04497,-9.2691 15.71104,-9.87639 0.90101,-0.82149 0.97053,-2.76817 0.27153,-7.60416 -2.71945,-18.81447 -7.97395,-93.341954 -6.67275,-94.643154 2.12392,-2.12392 34.14441,-15.6787 52.71599,-22.315506 C 318.44726,12.8023 368.33629,-1.0489296 369.5595,0.17428041 371.55428,2.1690604 391.25668,39.403976 401.81831,61.139136 l 13.5,27.78215 6,-0.62649 c 3.3,-0.34457 9.825,-1.04643 14.5,-1.55967 4.675,-0.51325 17.275,-0.93318 28,-0.93318 17.73641,0 23.83785,0.35684 42.55271,2.48869 l 6.05273,0.68947 3.33124,-7.35684 C 525.06264,61.067946 555.29695,2.9544604 558.1871,0.06430041 559.32379,-1.0723896 610.35528,13.15254 628.64448,19.70415 c 19.4052,6.951406 50.0074,19.970546 52.93021,22.518236 1.2633,1.10116 -4.1369,76.708164 -6.7527,94.544034 -1.1287,7.69546 -3.12401,5.64552 18.2424,18.7419 16.6018,10.17596 42.6661,29.50497 59.0014,43.75497 5.3611,4.67672 10.0218,8.50313 10.3571,8.50313 0.3353,0 6.5239,-3.75824 13.7525,-8.35165 24.0927,-15.30967 66.6566,-39.22024 68.4886,-38.47397 2.9194,1.18922 36.2663,40.57909 50.1441,59.23095 8.6379,11.60937 24.896,35.69368 30.8457,45.69405 l 2.1415,3.59937 -15.2385,22.92278 c -8.3812,12.60753 -21.201,30.86037 -28.4885,40.56187 l -13.25,17.63909 v 122.58875 c 0,67.42382 -0.1407,122.58876 -0.3128,122.58876 -6.235,0 -155.3904,15.2932 -156.932,16.09055 -8.3485,4.31812 -8.6439,5.47595 -11.4336,44.81099 -1.3481,19.00871 -2.6059,34.71606 -2.795,34.90526 -0.6139,0.6139 -122.90187,9.2482 -126.99105,8.9664 l -3.96449,-0.2732 -4.65155,-31.56542 c -2.55836,-17.36098 -5.12312,-32.43598 -5.69947,-33.5 -1.84082,-3.39839 -6.76327,-7.4432 -10.28869,-8.45428 -2.10598,-0.60398 -34.32547,-0.9803 -83.93133,-0.9803 -49.60586,0 -81.82535,0.37632 -83.93133,0.9803 -3.52542,1.01108 -8.44787,5.05589 -10.28869,8.45428 -0.57635,1.06402 -3.14189,16.13902 -5.70121,33.5 l -4.65329,31.56542 -6.46274,0.1492 c -3.55451,0.082 -32.94693,-1.8022 -65.31649,-4.1871 z M 477.43479,545.98688 c 6.38229,-3.29445 9.99911,-6.80804 12.80578,-12.44027 l 2.57775,-5.17288 -0.01,-47.55365 -0.01,-47.55366 -2.33177,-5.00728 c -4.67561,-10.04146 -14.42737,-15.8367 -26.64823,-15.8367 -12.36766,0 -22.5305,6.17599 -26.90818,16.35218 -2.11177,4.90893 -2.14269,5.7908 -1.86955,53.32128 l 0.27773,48.32981 3.02914,4.92035 c 3.13299,5.08904 10.27163,10.67401 15.83557,12.38906 5.36223,1.65288 18.58948,0.65836 23.25176,-1.74824 z m -204.11647,-8.13636 c 25.16842,-6.65672 46.36344,-23.9721 58.24565,-47.5841 10.63004,-21.12373 12.28824,-48.12986 4.33516,-70.60432 -5.84778,-16.52515 -18.48676,-33.37563 -32.57387,-43.42798 -8.21607,-5.86287 -21.20601,-11.96858 -31.00694,-14.57433 -10.46235,-2.78159 -31.58996,-3.05769 -41.86281,-0.54706 -27.90133,6.81893 -50.63597,25.30266 -62.64682,50.93318 -5.71095,12.18683 -8.18142,23.61645 -8.14926,37.70249 0.0149,6.52119 0.69915,14.66002 1.57727,18.76054 7.80376,36.44101 37.09264,64.55852 74.24137,71.27221 8.24272,1.48966 28.8917,0.43614 37.84025,-1.93063 z m -22,-23.0414 c -14.47636,-2.3053 -25.11476,-7.62921 -35.02307,-17.52705 -20.21126,-20.1899 -23.09557,-52.02784 -6.86533,-75.78163 6.15537,-9.0087 13.13627,-15.01479 22.8884,-19.69227 9.99448,-4.79372 16.62552,-6.33923 26.99392,-6.29155 16.29878,0.075 30.41085,6.0212 42.00608,17.69959 11.47923,11.56157 17.5,26.02869 17.5,42.05021 0,16.02152 -6.02077,30.48864 -17.5,42.05021 -13.28733,13.38263 -32.84396,20.22452 -50,17.49249 z m 450.79656,22.5382 c 25.5047,-7.53591 46.2187,-25.00041 57.2675,-48.2835 11.4343,-24.09551 11.60271,-53.20911 0.4456,-77.01791 -21.8093,-46.53972 -77.17819,-66.22113 -122.50969,-43.54723 -26.2591,13.13426 -44.9653,38.25781 -49.5233,66.51252 -1.7252,10.69439 -0.7672,30.1744 1.9288,39.21928 9.8735,33.12505 35.7734,57.36542 69.0945,64.66729 12.3126,2.69813 31.2077,2.0215 43.29659,-1.55045 z m -42.5314,-22.62073 c -13.00609,-2.00587 -26.21389,-9.22133 -35.3406,-19.30668 -13.5524,-14.97588 -18.6923,-36.40186 -13.35379,-55.66647 3.01139,-10.86695 7.4822,-18.54891 15.42409,-26.50267 11.7749,-11.79259 25.95541,-17.69643 42.5051,-17.69643 25.5573,0 47.0676,15.01998 56.1561,39.21208 2.8849,7.6791 3.2006,9.61063 3.2686,20 0.063,9.62309 -0.3228,12.71587 -2.36429,18.94973 -2.98131,9.10383 -10.39211,20.43583 -17.33821,26.51207 -12.8891,11.27507 -32.3972,17.0523 -48.957,14.49837 z"
       id="path1" /><path
       sodipodi:type="star"
       style="fill:#5a5a5a;fill-opacity:1;stroke:#5a5a5a;stroke-width:8.41174;stroke-linecap:round;stroke-linejoin:round;stroke-dasharray:none;stroke-opacity:1;paint-order:normal"
       id="path2"
       inkscape:flatsided="true"
       sodipodi:sides="3"
       sodipodi:cx="540.92065"
       sodipodi:cy="603.1062"
       sodipodi:r1="135.85596"
       sodipodi:r2="217.36372"
       sodipodi:arg1="2.0943951"
       sodipodi:arg2="3.1415927"
       inkscape:rounded="0"
       inkscape:randomized="0"
       d="m 472.99268,720.76091 0,-235.30942 203.78393,117.65471 z"
       inkscape:transform-center-x="-258.40521"
       transform="matrix(2.3776293,0,0,2.3776293,-595.1229,-699.70153)"
       inkscape:transform-center-y="4.3909834e-05" /></g></svg>
